<svg width="22" height="22" viewBox="0 0 22 22" fill="none" xmlns="http://www.w3.org/2000/svg">
<path d="M4.63452 15.8851C4.01194 15.2625 4.01194 14.2531 4.63452 13.6306L9.89512 8.36997C10.5177 7.7474 11.5271 7.7474 12.1497 8.36997L17.4103 13.6306C18.0328 14.2531 18.0328 15.2625 17.4103 15.8851L12.1497 21.1457C11.5271 21.7683 10.5177 21.7683 9.89512 21.1457L4.63452 15.8851Z" fill="black"/>
<path d="M4.61186 6.04638C3.98928 6.66895 3.98928 7.67835 4.61186 8.30092L6.52139 10.2105L9.83432 6.89753C10.4984 6.23345 11.5751 6.23345 12.2392 6.89753L15.5151 10.1734L17.3876 8.30092C18.0102 7.67835 18.0102 6.66895 17.3876 6.04638L12.127 0.785779C11.5044 0.163204 10.495 0.163204 9.87246 0.785779L4.61186 6.04638Z" fill="black"/>
</svg>
