<svg width="24" height="24" viewBox="0 0 24 24" fill="none" xmlns="http://www.w3.org/2000/svg">
<path d="M22.0102 15.5633L22.0109 15.5659L22.0109 15.5659C22.1775 16.1909 21.8185 16.8695 21.185 16.992L15.2478 18.5567C15.3216 19.7232 14.569 20.8123 13.4004 21.1164C12.2322 21.4433 11.0181 20.8702 10.5099 19.8297L9.53048 20.0967L9.52943 20.097C9.32192 20.1488 9.10624 20.0453 9.05189 19.8293C9.05185 19.8292 9.05181 19.829 9.05177 19.8288L5.0558 5.11525L3.15676 5.5901L3.14463 5.54159L3.15676 5.5901C2.66758 5.71241 2.13079 5.41954 1.98425 4.90645M22.0102 15.5633L2.03232 4.89272M22.0102 15.5633L22.0101 15.5631L21.57 13.9419C21.57 13.9417 21.5699 13.9416 21.5699 13.9414C21.5155 13.7254 21.2999 13.622 21.0924 13.6737L21.0919 13.6739L19.448 14.1017L17.6072 7.26779C17.6072 7.26765 17.6071 7.26751 17.6071 7.26737C17.5528 7.05131 17.3371 6.94781 17.1295 6.9996L17.1287 6.99982L13.5385 7.96024L12.5553 4.32467C12.5553 4.32451 12.5553 4.32435 12.5552 4.3242C12.5009 4.10817 12.2852 4.00469 12.0777 4.05648L12.0771 4.05663L7.44405 5.27223M22.0102 15.5633L7.44405 5.27223M1.98425 4.90645L2.03232 4.89272M1.98425 4.90645C1.98425 4.90645 1.98425 4.90646 1.98425 4.90646L2.03232 4.89272M1.98425 4.90645C1.83692 4.39075 2.15683 3.87818 2.66746 3.73233L2.66913 3.73186L2.66914 3.73189L6.39936 2.80521M2.03232 4.89272C1.89332 4.40615 2.19446 3.91943 2.6812 3.78041L6.41221 2.85353M6.39936 2.80521C6.39907 2.80529 6.39879 2.80537 6.3985 2.80545L6.41221 2.85353M6.39936 2.80521L6.40016 2.80501L6.41221 2.85353M6.39936 2.80521C6.58709 2.75219 6.8009 2.85933 6.85455 3.07279L6.85444 3.07239L6.80615 3.08534M6.41221 2.85353C6.57434 2.8073 6.75976 2.89993 6.80615 3.08534M6.80615 3.08534L6.85465 3.0732M6.80615 3.08534L7.40863 5.33322L6.85465 3.0732M6.85465 3.0732L7.44405 5.27223M6.85465 3.0732L7.44405 5.27223M5.69545 4.5786L5.69552 4.57858L5.69463 4.5759C5.64278 4.42054 5.4873 4.2868 5.32277 4.2868H5.25326V4.28532L5.24137 4.28824L2.97036 4.84446L2.97035 4.84442L2.96852 4.84494C2.90032 4.86441 2.84746 4.85276 2.80875 4.82731C2.76889 4.80111 2.73977 4.75738 2.72645 4.70652C2.69964 4.60414 2.73898 4.49138 2.85676 4.45444L6.21442 3.60935L9.8628 17.0483C9.86284 17.0485 9.86288 17.0486 9.86293 17.0488C9.91726 17.2648 10.1329 17.3683 10.3405 17.3165L10.3409 17.3164L10.8071 17.1954C10.3552 17.7407 10.1772 18.4623 10.272 19.1303L9.69192 19.2704L5.69545 4.5786ZM11.0947 19.2924L11.0947 19.2924C10.8018 18.3461 11.3422 17.3784 12.2878 17.1307L12.2883 17.1306C13.2797 16.8603 14.2479 17.5141 14.4276 18.4132L14.4276 18.4132L14.4278 18.4141C14.63 19.3353 14.0467 20.1691 13.1885 20.4177C12.287 20.6655 11.3646 20.1695 11.0947 19.2924ZM20.9754 16.2926L15.0636 17.8567C14.8149 17.2186 14.2793 16.7014 13.6323 16.4618C14.256 16.2964 14.9237 16.1196 15.6118 15.9374C17.3835 15.4681 19.2904 14.9631 20.9301 14.5249L21.2647 15.7743L21.2647 15.7745C21.3272 16.0037 21.2029 16.23 20.9764 16.2924C20.9762 16.2924 20.976 16.2925 20.9757 16.2925L20.9754 16.2926ZM18.7254 14.3125L10.5026 16.4884L8.74446 10.0267L16.9673 7.85078L18.7254 14.3125ZM7.65533 6.0176L11.9152 4.8846L12.7931 8.14822L8.53298 9.28122L7.65533 6.0176Z" fill="#4C626A" stroke="#4C626A" stroke-width="0.1"/>
</svg>
